<?xml version="1.0" standalone="no"?>
<!DOCTYPE svg PUBLIC "-//W3C//DTD SVG 20010904//EN"
 "http://www.w3.org/TR/2001/REC-SVG-20010904/DTD/svg10.dtd">
<svg version="1.0" xmlns="http://www.w3.org/2000/svg"
 width="512.000000pt" height="512.000000pt" viewBox="0 0 512.000000 512.000000"
 preserveAspectRatio="xMidYMid meet">

<g transform="translate(0.000000,512.000000) scale(0.100000,-0.100000)"
fill="#888888" stroke="none">
<path d="M2295 4839 c-285 -34 -613 -140 -842 -271 -88 -50 -117 -89 -117
-158 0 -86 57 -149 141 -157 44 -4 61 2 193 66 297 146 571 211 887 211 442 0
856 -140 1208 -409 85 -64 256 -232 328 -321 581 -720 584 -1747 7 -2470 -88
-110 -138 -158 -144 -139 -2 8 -16 57 -30 109 -102 371 -352 607 -752 710
-356 92 -873 92 -1232 0 -293 -74 -521 -237 -650 -462 -39 -67 -95 -214 -112
-288 -19 -89 -17 -87 -56 -49 -147 141 -322 421 -409 654 -197 526 -162 1096
97 1608 55 109 60 123 56 169 -6 61 -31 96 -89 126 -51 27 -102 24 -154 -8
-65 -40 -205 -339 -271 -580 -66 -237 -78 -335 -79 -615 0 -273 10 -359 65
-578 195 -774 814 -1410 1585 -1630 546 -155 1135 -104 1640 143 664 324 1127
941 1255 1670 28 158 38 458 21 621 -107 1038 -893 1867 -1927 2035 -118 19
-501 27 -619 13z m635 -3103 c234 -38 395 -104 508 -210 131 -124 183 -253
226 -559 5 -37 4 -39 -55 -77 -147 -95 -357 -186 -544 -236 -161 -43 -254 -55
-445 -61 -269 -8 -474 23 -716 108 -109 38 -307 133 -392 188 l-62 41 6 42
c41 298 86 413 213 539 62 62 94 85 171 122 109 53 243 90 380 106 52 6 111
13 130 15 80 9 489 -3 580 -18z"/>
<path d="M2410 3986 c-141 -30 -261 -88 -363 -175 -359 -304 -383 -844 -51
-1175 156 -156 338 -231 564 -231 226 0 408 75 564 231 156 156 231 338 231
564 0 174 -36 298 -124 432 -114 174 -272 288 -481 345 -78 21 -260 26 -340 9z
m265 -321 c237 -62 393 -291 358 -529 -28 -194 -168 -351 -358 -401 -251 -65
-513 94 -580 350 -89 343 237 669 580 580z"/>
</g>
</svg>
