<?xml version="1.0" standalone="no"?>
<!DOCTYPE svg PUBLIC "-//W3C//DTD SVG 20010904//EN"
 "http://www.w3.org/TR/2001/REC-SVG-20010904/DTD/svg10.dtd">
<svg version="1.0" xmlns="http://www.w3.org/2000/svg"
 width="512.000000pt" height="496.000000pt" viewBox="0 0 512.000000 496.000000"
 preserveAspectRatio="xMidYMid meet">

<g transform="translate(0.000000,496.000000) scale(0.100000,-0.100000)"
fill="#888888" stroke="none">
<path d="M2315 4954 c-324 -32 -540 -84 -794 -190 -724 -304 -1268 -944 -1451
-1709 -50 -209 -64 -337 -64 -580 1 -407 77 -732 254 -1090 323 -654 905
-1125 1610 -1306 209 -53 370 -72 610 -72 425 -1 756 78 1135 271 611 310
1078 883 1259 1544 68 247 81 351 81 653 0 300 -9 383 -70 620 -46 181 -93
306 -180 482 -130 262 -282 470 -497 678 -382 372 -845 600 -1378 680 -101 15
-433 27 -515 19z m417 -319 c814 -95 1505 -637 1789 -1402 144 -388 172 -839
77 -1248 -74 -319 -249 -666 -460 -909 l-34 -39 -59 38 c-80 52 -218 115 -345
158 -82 28 -506 162 -580 184 -13 3 -15 -14 -12 -125 4 -159 -10 -225 -76
-365 -97 -205 -218 -373 -376 -524 l-97 -93 -73 0 c-71 0 -76 2 -123 39 -188
150 -385 430 -479 681 -26 70 -28 85 -28 232 -1 87 -4 158 -7 158 -3 0 -39
-11 -80 -25 -41 -14 -171 -55 -289 -91 -300 -92 -449 -153 -568 -232 -30 -19
-57 -31 -61 -26 -179 203 -347 497 -430 749 -227 694 -103 1420 342 2010 78
103 289 314 392 392 340 257 735 411 1140 446 107 9 323 5 437 -8z"/>
<path d="M2255 4165 c-243 -46 -460 -164 -585 -318 -65 -81 -103 -154 -136
-262 -36 -120 -44 -329 -20 -522 9 -73 16 -136 16 -141 0 -5 -11 -7 -25 -5
-55 11 -105 -84 -105 -197 0 -103 52 -241 119 -312 22 -25 69 -101 104 -171
98 -193 185 -317 306 -437 144 -142 253 -204 417 -236 393 -75 732 155 994
671 33 66 71 131 85 145 45 47 95 132 115 197 22 73 27 194 9 257 -14 50 -52
88 -84 84 -13 -2 -25 -1 -26 2 -1 3 4 57 12 120 22 178 18 395 -9 505 -38 151
-90 244 -196 350 -130 131 -253 199 -456 252 -80 21 -123 26 -275 29 -131 2
-202 -1 -260 -11z m-122 -651 c258 -234 584 -352 1055 -380 82 -5 112 -10 112
-20 0 -30 -33 -246 -51 -333 -10 -51 -19 -96 -19 -98 0 -3 16 26 36 65 31 64
72 112 95 112 21 0 61 -49 69 -84 19 -84 -28 -227 -99 -301 -25 -25 -67 -97
-114 -195 -168 -345 -308 -499 -514 -568 -69 -23 -94 -26 -223 -26 -133 0
-152 2 -225 28 -207 72 -333 211 -503 556 -53 109 -99 188 -120 209 -78 78
-124 246 -88 323 40 83 91 69 150 -40 19 -37 36 -62 36 -57 0 6 -12 69 -27
140 -20 99 -26 161 -27 260 -1 122 1 134 26 189 59 124 140 205 256 252 87 36
105 33 175 -32z"/>
<path d="M2302 1350 c-28 -21 -53 -48 -57 -60 -8 -26 19 -64 96 -132 l60 -54
-81 -194 c-55 -133 -79 -202 -75 -218 7 -28 133 -156 192 -196 l43 -29 42 28
c58 38 186 170 193 198 4 15 -20 87 -74 217 l-81 194 74 70 c107 104 107 104
40 165 l-56 51 -133 0 -133 0 -50 -40z"/>
</g>
</svg>
